<?xml version="1.0" encoding="UTF-8" standalone="no"?>
<svg
   xmlns:dc="http://purl.org/dc/elements/1.1/"
   xmlns:cc="http://creativecommons.org/ns#"
   xmlns:rdf="http://www.w3.org/1999/02/22-rdf-syntax-ns#"
   xmlns:svg="http://www.w3.org/2000/svg"
   xmlns="http://www.w3.org/2000/svg"
   xmlns:sodipodi="http://sodipodi.sourceforge.net/DTD/sodipodi-0.dtd"
   xmlns:inkscape="http://www.inkscape.org/namespaces/inkscape"
   viewBox="0 0 16 16"
   version="1.1"
   id="svg841"
   sodipodi:docname="calendarIcon.svg"
   inkscape:version="0.92.4 (5da689c313, 2019-01-14)">
  <metadata
     id="metadata847">
    <rdf:RDF>
      <cc:Work
         rdf:about="">
        <dc:format>image/svg+xml</dc:format>
        <dc:type
           rdf:resource="http://purl.org/dc/dcmitype/StillImage" />
        <dc:title></dc:title>
      </cc:Work>
    </rdf:RDF>
  </metadata>
  <defs
     id="defs845" />
  <sodipodi:namedview
     pagecolor="#ffffff"
     bordercolor="#666666"
     borderopacity="1"
     objecttolerance="10"
     gridtolerance="10"
     guidetolerance="10"
     inkscape:pageopacity="0"
     inkscape:pageshadow="2"
     inkscape:window-width="1920"
     inkscape:window-height="1017"
     id="namedview843"
     showgrid="false"
     inkscape:zoom="53.125"
     inkscape:cx="8"
     inkscape:cy="8"
     inkscape:window-x="-8"
     inkscape:window-y="-8"
     inkscape:window-maximized="1"
     inkscape:current-layer="svg841" />
  <g
     data-name="Layer 7"
     id="Layer_7"
     style="fill:#f9ffff;fill-opacity:1">
    <path
       d="M14,1h-.5363c0-.0159.0065-.03.0051-.0464A.5037.5037,0,0,0,12.9243.502,1.5085,1.5085,0,0,0,11.9449,1H8.9359a.4476.4476,0,0,0,.005-.0464A.5054.5054,0,0,0,8.3965.502,1.5055,1.5055,0,0,0,7.4176,1H4.493A.4476.4476,0,0,0,4.498.9536.5073.5073,0,0,0,3.9536.502,1.5058,1.5058,0,0,0,2.9747,1H2A2.0023,2.0023,0,0,0,0,3V14a2.0023,2.0023,0,0,0,2,2H14a2.0023,2.0023,0,0,0,2-2V3A2.0023,2.0023,0,0,0,14,1Zm1,13a1,1,0,0,1-1,1H2a1,1,0,0,1-1-1V5.5H11a.5.5,0,0,0,0-1H1V3A1,1,0,0,1,2,2h.5851v.0005A1.5087,1.5087,0,0,0,3.9976,3.499L4.03,3.5a.5.5,0,0,0,.0312-.999A.5127.5127,0,0,1,3.5851,2H7.028l0,.0005A1.5088,1.5088,0,0,0,8.44,3.499l.0323.001a.5.5,0,0,0,.0312-.999A.5127.5127,0,0,1,8.028,2h3.5278v.0005A1.5087,1.5087,0,0,0,12.9683,3.499l.0322.001a.5.5,0,0,0,.0312-.999A.513.513,0,0,1,12.5558,2H14a1,1,0,0,1,1,1V4.5H13a.5.5,0,0,0,0,1h2Z"
       id="path834"
       style="fill:#f9ffff;fill-opacity:1" />
    <path
       d="M8,6.0049a4,4,0,1,0,4,4A4.0045,4.0045,0,0,0,8,6.0049Zm0,7a3,3,0,1,1,3-3A3.0033,3.0033,0,0,1,8,13.0049Z"
       id="path836"
       style="fill:#f9ffff;fill-opacity:1" />
    <path
       d="M9,10.0049H8.5v-1.5a.5.5,0,0,0-1,0v2a.5.5,0,0,0,.5.5H9a.5.5,0,0,0,0-1Z"
       id="path838"
       style="fill:#f9ffff;fill-opacity:1" />
  </g>
</svg>
