<?xml version="1.0" encoding="UTF-8" standalone="no"?>
<svg
   xmlns:dc="http://purl.org/dc/elements/1.1/"
   xmlns:cc="http://creativecommons.org/ns#"
   xmlns:rdf="http://www.w3.org/1999/02/22-rdf-syntax-ns#"
   xmlns:svg="http://www.w3.org/2000/svg"
   xmlns="http://www.w3.org/2000/svg"
   xmlns:sodipodi="http://sodipodi.sourceforge.net/DTD/sodipodi-0.dtd"
   xmlns:inkscape="http://www.inkscape.org/namespaces/inkscape"
   viewBox="0 0 24 24"
   version="1.1"
   id="svg839"
   sodipodi:docname="declineIcon.svg"
   inkscape:version="0.92.4 (5da689c313, 2019-01-14)">
  <metadata
     id="metadata843">
    <rdf:RDF>
      <cc:Work
         rdf:about="">
        <dc:format>image/svg+xml</dc:format>
        <dc:type
           rdf:resource="http://purl.org/dc/dcmitype/StillImage" />
      </cc:Work>
    </rdf:RDF>
  </metadata>
  <sodipodi:namedview
     pagecolor="#ffffff"
     bordercolor="#666666"
     borderopacity="1"
     objecttolerance="10"
     gridtolerance="10"
     guidetolerance="10"
     inkscape:pageopacity="0"
     inkscape:pageshadow="2"
     inkscape:window-width="1920"
     inkscape:window-height="1017"
     id="namedview841"
     showgrid="false"
     inkscape:zoom="35.416667"
     inkscape:cx="12"
     inkscape:cy="12"
     inkscape:window-x="-8"
     inkscape:window-y="-8"
     inkscape:window-maximized="1"
     inkscape:current-layer="svg839" />
  <defs
     id="defs832">
    <style
       id="style830">.cls-1{fill:#4d4d4d;}</style>
  </defs>
  <title
     id="title834" />
  <g
     data-name="02"
     id="_02"
     style="fill-opacity:1;fill:#8b0000">
    <path
       class="cls-1"
       d="M12,0A12,12,0,1,0,24,12,12,12,0,0,0,12,0Zm6.31,16.9a7.84,7.84,0,0,1-1.41,1.41L12,13.41l-4.9,4.9A7.84,7.84,0,0,1,5.69,16.9l4.9-4.9L5.69,7.1A7.84,7.84,0,0,1,7.1,5.69l4.9,4.9,4.9-4.9A7.84,7.84,0,0,1,18.31,7.1L13.41,12Z"
       id="path836"
       style="fill-opacity:1;fill:#8b0000" />
  </g>
</svg>
