<?xml version="1.0" encoding="UTF-8" standalone="no"?>
<svg
   xmlns:dc="http://purl.org/dc/elements/1.1/"
   xmlns:cc="http://creativecommons.org/ns#"
   xmlns:rdf="http://www.w3.org/1999/02/22-rdf-syntax-ns#"
   xmlns:svg="http://www.w3.org/2000/svg"
   xmlns="http://www.w3.org/2000/svg"
   xmlns:sodipodi="http://sodipodi.sourceforge.net/DTD/sodipodi-0.dtd"
   xmlns:inkscape="http://www.inkscape.org/namespaces/inkscape"
   height="18.002943"
   viewBox="0 0 18 18.002943"
   width="18"
   version="1.1"
   id="svg831"
   sodipodi:docname="pencilIcon.svg"
   style="fill:none"
   inkscape:version="0.92.4 (5da689c313, 2019-01-14)">
  <metadata
     id="metadata837">
    <rdf:RDF>
      <cc:Work
         rdf:about="">
        <dc:format>image/svg+xml</dc:format>
        <dc:type
           rdf:resource="http://purl.org/dc/dcmitype/StillImage" />
        <dc:title></dc:title>
      </cc:Work>
    </rdf:RDF>
  </metadata>
  <defs
     id="defs835" />
  <sodipodi:namedview
     pagecolor="#ffffff"
     bordercolor="#666666"
     borderopacity="1"
     objecttolerance="10"
     gridtolerance="10"
     guidetolerance="10"
     inkscape:pageopacity="0"
     inkscape:pageshadow="2"
     inkscape:window-width="1920"
     inkscape:window-height="1017"
     id="namedview833"
     showgrid="false"
     inkscape:zoom="17.708333"
     inkscape:cx="24.30797"
     inkscape:cy="1.6814525"
     inkscape:window-x="-8"
     inkscape:window-y="-8"
     inkscape:window-maximized="1"
     inkscape:current-layer="svg831" />
  <path
     d="m 0,17.002942 c 0,-0.5523 0.44772,-1 1,-1 h 16 c 0.5523,0 1,0.4477 1,1 0,0.5523 -0.4477,1 -1,1 H 1 c -0.55228,0 -1,-0.4477 -1,-1 z"
     id="path827"
     inkscape:connector-curvature="0"
     style="clip-rule:evenodd;fill:#ffffff;fill-rule:evenodd;fill-opacity:1" />
  <path
     d="m 13.6414,2.0585825 c -0.0781,-0.07811 -0.2047,-0.07811 -0.2828,0 l -1.4444,1.44436 1.5858,1.58579 1.4444,-1.44437 c 0.0781,-0.0781 0.0781,-0.20473 0,-0.28284 z m -1.5556,4.44436 -1.5858,-1.58578 -7.05719,7.0571795 -0.2643,1.850101 1.85009,-0.2643 z m -0.1414,-5.85858 c 0.8591,-0.85915 2.2521,-0.85915 3.1112,0 l 1.303,1.30295 c 0.8591,0.85915 0.8591,2.25211 0,3.11127 L 6.20711,15.210043 c -0.153,0.152999 -0.35149,0.2523 -0.56569,0.2829 l -3.5,0.5 c -0.31159,0.0445 -0.62596,-0.0603 -0.84853,-0.2829 -0.22256,-0.2226 -0.32735,-0.5369 -0.28284,-0.848501 l 0.5,-3.5 c 0.0306,-0.2142 0.12985,-0.412699 0.28284,-0.5657 z"
     id="path829"
     inkscape:connector-curvature="0"
     style="clip-rule:evenodd;fill:#ffffff;fill-rule:evenodd;fill-opacity:1" />
</svg>
