<?xml version="1.0" ?><svg viewBox="0 0 64 64" xmlns="http://www.w3.org/2000/svg"><defs><style>.cls-1{fill:#e6e6e6;}.cls-2{fill:#f2f2f2;}.cls-3{fill:#fccb7e;}.cls-4{fill:#fdd598;}</style></defs><title/><g data-name="Layer 25" id="Layer_25"><path d="M11,12h0a1,1,0,0,1-1-1V10H9A1,1,0,0,1,9,8h2a1,1,0,0,1,1,1v2A1,1,0,0,1,11,12Z"/><path d="M11,16a1,1,0,0,1-1-1V14a1,1,0,0,1,2,0v1A1,1,0,0,1,11,16Z"/><path d="M17,12h0a1,1,0,0,1-1-1V10H15a1,1,0,0,1,0-2h2a1,1,0,0,1,1,1v2A1,1,0,0,1,17,12Z"/><path d="M17,16a1,1,0,0,1-1-1V14a1,1,0,0,1,2,0v1A1,1,0,0,1,17,16Z"/><path d="M23,12h0a1,1,0,0,1-1-1V10H21a1,1,0,0,1,0-2h2a1,1,0,0,1,1,1v2A1,1,0,0,1,23,12Z"/><path d="M23,16a1,1,0,0,1-1-1V14a1,1,0,0,1,2,0v1A1,1,0,0,1,23,16Z"/><path d="M29,12h0a1,1,0,0,1-1-1V10H27a1,1,0,0,1,0-2h2a1,1,0,0,1,1,1v2A1,1,0,0,1,29,12Z"/><path d="M29,16a1,1,0,0,1-1-1V14a1,1,0,0,1,2,0v1A1,1,0,0,1,29,16Z"/><path d="M35,12h0a1,1,0,0,1-1-1V10H33a1,1,0,0,1,0-2h2a1,1,0,0,1,1,1v2A1,1,0,0,1,35,12Z"/><path d="M35,16a1,1,0,0,1-1-1V14a1,1,0,0,1,2,0v1A1,1,0,0,1,35,16Z"/><path d="M41,12h0a1,1,0,0,1-1-1V10H39a1,1,0,0,1,0-2h2a1,1,0,0,1,1,1v2A1,1,0,0,1,41,12Z"/><path d="M41,16a1,1,0,0,1-1-1V14a1,1,0,0,1,2,0v1A1,1,0,0,1,41,16Z"/><path d="M47,12h0a1,1,0,0,1-1-1V10H45a1,1,0,0,1,0-2h2a1,1,0,0,1,1,1v2A1,1,0,0,1,47,12Z"/><path d="M47,16a1,1,0,0,1-1-1V14a1,1,0,0,1,2,0v1A1,1,0,0,1,47,16Z"/><path class="cls-1" d="M61,27H54.954c-.042,1.333-.113,2.659-.242,3.968l0,.032H57a2,2,0,0,1,2,2v4a2,2,0,0,1-2,2H53.312c-.331,1.351-.7,2.687-1.126,4H61a2,2,0,0,0,2-2V29A2,2,0,0,0,61,27Z"/><path class="cls-2" d="M61,27H58a2,2,0,0,1,2,2V41a2,2,0,0,1-2,2h3a2,2,0,0,0,2-2V29A2,2,0,0,0,61,27Z"/><path class="cls-1" d="M54.712,19.37c-.01-.127-.02-.253-.04-.37H1.03v4.388Q1,24.279,1,25.169t.03,1.78A57.758,57.758,0,0,0,9.261,55H46.739a58.031,58.031,0,0,0,5.447-12c.425-1.313.8-2.649,1.126-4a57.541,57.541,0,0,0,1.4-8l0-.032c.129-1.309.2-2.635.242-3.968.019-.61.046-1.218.046-1.831Q55,22.235,54.712,19.37Z"/><path class="cls-2" d="M54.712,19.37c-.01-.127-.02-.253-.04-.37h-3.03c.02.117.03.243.04.37q.284,2.86.288,5.8c0,.613-.027,1.221-.046,1.831-.042,1.333-.112,2.659-.242,3.968l0,.032a57.687,57.687,0,0,1-1.395,8c-.332,1.351-.7,2.687-1.127,4a58.031,58.031,0,0,1-5.447,12h3.03a58.031,58.031,0,0,0,5.447-12c.425-1.313.8-2.649,1.126-4a57.541,57.541,0,0,0,1.4-8l0-.032c.129-1.309.2-2.635.242-3.968.019-.61.046-1.218.046-1.831Q55,22.235,54.712,19.37Z"/><rect class="cls-3" height="12" width="6" x="38" y="27"/><rect class="cls-4" height="12" width="3" x="41" y="27"/><path d="M61,26H55.981c.008-.277.019-.553.019-.831,0-1.945-.1-3.929-.292-5.893-.013-.153-.026-.3-.05-.444A1,1,0,0,0,54.672,18H1.03a1,1,0,0,0-1,1v4.354Q0,24.261,0,25.169c0,.6.01,1.209.03,1.81A59.067,59.067,0,0,0,8.4,55.515,1,1,0,0,0,9.261,56H46.739a1,1,0,0,0,.857-.485A59.069,59.069,0,0,0,52.891,44H61a3,3,0,0,0,3-3V29A3,3,0,0,0,61,26Zm-5.4,6H57a1,1,0,0,1,1,1v4a1,1,0,0,1-1,1H54.566A59.272,59.272,0,0,0,55.6,32ZM46.169,54H9.831c-.385-.656-.733-1.331-1.091-2H39a1,1,0,0,0,0-2H8a.962.962,0,0,0-.257.052A57.047,57.047,0,0,1,2.029,26.915Q2,26.042,2,25.169c0-.582.01-1.165.03-1.781V20H40v6H38a1,1,0,0,0-1,1V39a1,1,0,0,0,1,1h6a1,1,0,0,0,1-1V27a1,1,0,0,0-1-1H42V20H53.767c.154,1.727.233,3.463.233,5.169,0,.464-.016.925-.032,1.386l-.013.414c-.047,1.475-.125,2.751-.243,3.938a56.64,56.64,0,0,1-1.371,7.855c-.347,1.416-.709,2.7-1.107,3.93A57.111,57.111,0,0,1,46.169,54ZM43,28V38H39V28ZM62,41a1,1,0,0,1-1,1H53.541c.032-.109.061-.227.093-.337.092-.318.182-.652.27-.981.062-.23.128-.446.188-.682H57a3,3,0,0,0,3-3V33a3,3,0,0,0-3-3H55.8c.009-.114.015-.237.024-.353.012-.184.026-.367.037-.557.009-.157.017-.322.026-.484.009-.18.019-.358.027-.544l0-.062H61a1,1,0,0,1,1,1Z"/><path d="M45,52H43a1,1,0,0,1,0-2h2a1,1,0,0,1,0,2Z"/></g></svg>