<?xml version="1.0" encoding="UTF-8" standalone="no"?>
<svg
   xmlns:dc="http://purl.org/dc/elements/1.1/"
   xmlns:cc="http://creativecommons.org/ns#"
   xmlns:rdf="http://www.w3.org/1999/02/22-rdf-syntax-ns#"
   xmlns:svg="http://www.w3.org/2000/svg"
   xmlns="http://www.w3.org/2000/svg"
   xmlns:sodipodi="http://sodipodi.sourceforge.net/DTD/sodipodi-0.dtd"
   xmlns:inkscape="http://www.inkscape.org/namespaces/inkscape"
   viewBox="0 0 60.319782 57.382153"
   version="1.1"
   id="svg841"
   sodipodi:docname="teamsIcon.svg"
   inkscape:version="0.92.4 (5da689c313, 2019-01-14)"
   width="60.319782"
   height="57.382153">
  <metadata
     id="metadata847">
    <rdf:RDF>
      <cc:Work
         rdf:about="">
        <dc:format>image/svg+xml</dc:format>
        <dc:type
           rdf:resource="http://purl.org/dc/dcmitype/StillImage" />
        <dc:title />
      </cc:Work>
    </rdf:RDF>
  </metadata>
  <defs
     id="defs845" />
  <sodipodi:namedview
     pagecolor="#ffffff"
     bordercolor="#666666"
     borderopacity="1"
     objecttolerance="10"
     gridtolerance="10"
     guidetolerance="10"
     inkscape:pageopacity="0"
     inkscape:pageshadow="2"
     inkscape:window-width="1920"
     inkscape:window-height="1017"
     id="namedview843"
     showgrid="false"
     inkscape:zoom="13.28125"
     inkscape:cx="30.16029"
     inkscape:cy="28.9459"
     inkscape:window-x="-8"
     inkscape:window-y="-8"
     inkscape:window-maximized="1"
     inkscape:current-layer="svg841" />
  <g
     id="Teamwork"
     style="fill:#ffffff;fill-opacity:1"
     transform="translate(-1.83971,-3.5637483)">
    <path
       d="m 22.2837,13.3631 2.9538,2.1461 a 1.9827,1.9827 0 0 1 0.72,2.2168 L 24.83,21.1986 a 1.9827,1.9827 0 0 0 3.051,2.2166 l 2.9541,-2.1461 a 1.9823,1.9823 0 0 1 2.3306,0 l 2.9541,2.1461 a 1.9827,1.9827 0 0 0 3.051,-2.2166 L 38.042,17.726 a 1.9828,1.9828 0 0 1 0.72,-2.2168 l 2.9539,-2.1461 A 1.9827,1.9827 0 0 0 40.5504,9.7764 H 36.9 a 1.9831,1.9831 0 0 1 -1.8857,-1.37 L 33.8857,4.9338 a 1.9826,1.9826 0 0 0 -3.7712,0 L 28.9861,8.4064 A 1.9829,1.9829 0 0 1 27.1,9.7764 h -3.6508 a 1.9827,1.9827 0 0 0 -1.1655,3.5867 z"
       id="path832"
       style="fill:#ffffff;fill-opacity:1"
       inkscape:connector-curvature="0" />
    <path
       d="m 37.4387,44.1386 a 1.1737,1.1737 0 0 1 -0.71,-1.0786 1.1966,1.1966 0 0 1 0.3718,-0.8779 c 0.0725,-0.0691 0.1419,-0.1372 0.1939,-0.192 a 7.3474,7.3474 0 0 0 0.9675,-1.2707 7.3009,7.3009 0 0 0 -7.637,-10.9231 7.134,7.134 0 0 0 -5.758,5.5937 7.3,7.3 0 0 0 2.0131,6.7768 1.2386,1.2386 0 0 1 0.3862,0.8793 v 0.0061 a 1.1751,1.1751 0 0 1 -0.71,1.09 12.0152,12.0152 0 0 0 -6.46,6.4014 15.2866,15.2866 0 0 0 -1.274,6.2953 v 1.56 a 2.547,2.547 0 0 0 2.5478,2.547 h 21.261 a 2.5468,2.5468 0 0 0 2.5466,-2.5468 v -1.5757 a 15.2521,15.2521 0 0 0 -1.2761,-6.292 12.0124,12.0124 0 0 0 -6.4628,-6.3928 z"
       id="path834"
       style="fill:#ffffff;fill-opacity:1"
       inkscape:connector-curvature="0" />
    <path
       d="m 60.8821,47.0135 a 12.0119,12.0119 0 0 0 -6.4621,-6.3927 1.1745,1.1745 0 0 1 -0.71,-1.0786 1.1973,1.1973 0 0 1 0.3719,-0.878 c 0.0725,-0.0692 0.1421,-0.1372 0.1938,-0.1921 a 7.3327,7.3327 0 0 0 0.9676,-1.27 7.3007,7.3007 0 0 0 -7.6368,-10.9232 7.1333,7.1333 0 0 0 -5.758,5.5937 7.3,7.3 0 0 0 2.0129,6.7768 1.2373,1.2373 0 0 1 0.3862,0.8792 v 0.0063 a 1.1745,1.1745 0 0 1 -0.71,1.09 11.8293,11.8293 0 0 0 -3.1953,1.9487 14.7374,14.7374 0 0 1 6.0188,6.8459 17.8408,17.8408 0 0 1 1.5161,7.405 v 0.6043 h 11.7344 a 2.5468,2.5468 0 0 0 2.5468,-2.5466 v -1.5766 a 15.25,15.25 0 0 0 -1.2763,-6.2921 z"
       id="path836"
       style="fill:#ffffff;fill-opacity:1"
       inkscape:connector-curvature="0" />
    <path
       d="m 23.66,42.5729 a 11.8205,11.8205 0 0 0 -3.2026,-1.9521 1.1744,1.1744 0 0 1 -0.71,-1.0786 1.1968,1.1968 0 0 1 0.3721,-0.878 c 0.0722,-0.0692 0.1418,-0.1372 0.1938,-0.1921 a 7.341,7.341 0 0 0 0.9673,-1.27 7.3006,7.3006 0 0 0 -7.6367,-10.9232 7.1338,7.1338 0 0 0 -5.7581,5.5937 7.3007,7.3007 0 0 0 2.013,6.7768 1.2369,1.2369 0 0 1 0.3862,0.8792 v 0.0063 a 1.1747,1.1747 0 0 1 -0.71,1.09 12.0156,12.0156 0 0 0 -6.46,6.4013 15.2875,15.2875 0 0 0 -1.2742,6.2953 v 1.5607 a 2.5465,2.5465 0 0 0 2.5466,2.5466 h 11.7354 v -0.5893 a 17.8839,17.8839 0 0 1 1.5127,-7.4058 14.74,14.74 0 0 1 6.0245,-6.8608 z"
       id="path838"
       style="fill:#ffffff;fill-opacity:1"
       inkscape:connector-curvature="0" />
  </g>
</svg>
