<?xml version="1.0" encoding="UTF-8" standalone="no"?>
<svg
   xmlns:dc="http://purl.org/dc/elements/1.1/"
   xmlns:cc="http://creativecommons.org/ns#"
   xmlns:rdf="http://www.w3.org/1999/02/22-rdf-syntax-ns#"
   xmlns:svg="http://www.w3.org/2000/svg"
   xmlns="http://www.w3.org/2000/svg"
   xmlns:sodipodi="http://sodipodi.sourceforge.net/DTD/sodipodi-0.dtd"
   xmlns:inkscape="http://www.inkscape.org/namespaces/inkscape"
   id="social_x5F_invite_x5F_friends"
   style="enable-background:new 0 0 30 32;"
   version="1.1"
   viewBox="0 0 30 32"
   xml:space="preserve"
   sodipodi:docname="userInviteIcon.svg"
   inkscape:version="0.92.4 (5da689c313, 2019-01-14)"><metadata
     id="metadata887"><rdf:RDF><cc:Work
         rdf:about=""><dc:format>image/svg+xml</dc:format><dc:type
           rdf:resource="http://purl.org/dc/dcmitype/StillImage" /></cc:Work></rdf:RDF></metadata><defs
     id="defs885" /><sodipodi:namedview
     pagecolor="#ffffff"
     bordercolor="#666666"
     borderopacity="1"
     objecttolerance="10"
     gridtolerance="10"
     guidetolerance="10"
     inkscape:pageopacity="0"
     inkscape:pageshadow="2"
     inkscape:window-width="1920"
     inkscape:window-height="1017"
     id="namedview883"
     showgrid="false"
     inkscape:zoom="26.5625"
     inkscape:cx="15"
     inkscape:cy="14.494118"
     inkscape:window-x="-8"
     inkscape:window-y="-8"
     inkscape:window-maximized="1"
     inkscape:current-layer="social_x5F_invite_x5F_friends" /><g
     id="g880"
     style="fill:#228b22;fill-opacity:1"><g
       id="g854"
       style="fill:#228b22;fill-opacity:1"><polygon
         points="22,32 4,32 4,26 6,26 6,30 20,30 20,10 6,10 6,16 4,16 4,8 22,8   "
         style="fill:#228b22;fill-opacity:1"
         id="polygon852" /></g><g
       id="g858"
       style="fill:#228b22;fill-opacity:1"><path
         d="M13,20c-1.654,0-3-1.346-3-3s1.346-3,3-3s3,1.346,3,3S14.654,20,13,20z M13,16    c-0.552,0-1,0.448-1,1s0.448,1,1,1s1-0.448,1-1S13.552,16,13,16z"
         style="fill:#228b22;fill-opacity:1"
         id="path856" /></g><g
       id="g862"
       style="fill:#228b22;fill-opacity:1"><polygon
         points="18,26 16,26 16,24.414 14.586,23 11.414,23 10,24.414 10,26 8,26 8,23.586 10.586,21     15.414,21 18,23.586   "
         style="fill:#228b22;fill-opacity:1"
         id="polygon860" /></g><g
       id="g866"
       style="fill:#228b22;fill-opacity:1"><polygon
         points="26,28 24,28 24,6 8,6 8,4 26,4   "
         style="fill:#228b22;fill-opacity:1"
         id="polygon864" /></g><g
       id="g870"
       style="fill:#228b22;fill-opacity:1"><polygon
         points="30,24 28,24 28,2 12,2 12,0 30,0   "
         style="fill:#228b22;fill-opacity:1"
         id="polygon868" /></g><g
       id="g874"
       style="fill:#228b22;fill-opacity:1"><rect
         height="2"
         style="fill:#228b22;fill-opacity:1"
         width="6"
         y="20"
         id="rect872" /></g><g
       id="g878"
       style="fill:#228b22;fill-opacity:1"><rect
         height="6"
         style="fill:#228b22;fill-opacity:1"
         width="2"
         x="2"
         y="18"
         id="rect876" /></g></g></svg>