<?xml version="1.0" encoding="UTF-8" standalone="no"?>
<svg
   xmlns:dc="http://purl.org/dc/elements/1.1/"
   xmlns:cc="http://creativecommons.org/ns#"
   xmlns:rdf="http://www.w3.org/1999/02/22-rdf-syntax-ns#"
   xmlns:svg="http://www.w3.org/2000/svg"
   xmlns="http://www.w3.org/2000/svg"
   xmlns:sodipodi="http://sodipodi.sourceforge.net/DTD/sodipodi-0.dtd"
   xmlns:inkscape="http://www.inkscape.org/namespaces/inkscape"
   enable-background="new 0 0 48 48"
   height="48px"
   id="Layer_3"
   version="1.1"
   viewBox="0 0 48 48"
   width="48px"
   xml:space="preserve"
   sodipodi:docname="userBlockIcon.svg"
   inkscape:version="0.92.4 (5da689c313, 2019-01-14)"><metadata
     id="metadata843"><rdf:RDF><cc:Work
         rdf:about=""><dc:format>image/svg+xml</dc:format><dc:type
           rdf:resource="http://purl.org/dc/dcmitype/StillImage" /></cc:Work></rdf:RDF></metadata><defs
     id="defs841" /><sodipodi:namedview
     pagecolor="#ffffff"
     bordercolor="#666666"
     borderopacity="1"
     objecttolerance="10"
     gridtolerance="10"
     guidetolerance="10"
     inkscape:pageopacity="0"
     inkscape:pageshadow="2"
     inkscape:window-width="1920"
     inkscape:window-height="1017"
     id="namedview839"
     showgrid="false"
     inkscape:zoom="17.708333"
     inkscape:cx="24"
     inkscape:cy="24"
     inkscape:window-x="-8"
     inkscape:window-y="-8"
     inkscape:window-maximized="1"
     inkscape:current-layer="Layer_3" /><g
     id="g836"
     style="fill:#8b0000;fill-opacity:1"><circle
       cx="20.897"
       cy="10.092"
       fill="#241F20"
       r="10.092"
       id="circle830"
       style="fill:#8b0000;fill-opacity:1" /><path
       d="M25,38c0-6.415,4.651-11.732,10.763-12.794c-1.653-2.127-3.714-3.894-6.06-5.164   c-2.349,2.08-5.425,3.352-8.806,3.352c-3.366,0-6.431-1.261-8.774-3.321C6.01,23.409,1.834,30.102,1.834,37.818   c0,1.215,0.109,2.401,0.307,3.557h23.317C25.169,40.297,25,39.17,25,38z"
       fill="#241F20"
       id="path832"
       style="fill:#8b0000;fill-opacity:1" /><path
       d="M38,28c-5.522,0-10,4.478-10,10s4.478,10,10,10s10-4.478,10-10S43.522,28,38,28z M43.679,41.558   l-2.121,2.121L38,40.121l-3.558,3.559l-2.121-2.122L35.879,38l-3.558-3.558l2.121-2.121L38,35.879l3.558-3.558l2.121,2.122   L40.121,38L43.679,41.558z"
       fill="#241F20"
       id="path834"
       style="fill:#8b0000;fill-opacity:1" /></g></svg>