<?xml version="1.0" encoding="UTF-8" standalone="no"?>
<svg
   xmlns:dc="http://purl.org/dc/elements/1.1/"
   xmlns:cc="http://creativecommons.org/ns#"
   xmlns:rdf="http://www.w3.org/1999/02/22-rdf-syntax-ns#"
   xmlns:svg="http://www.w3.org/2000/svg"
   xmlns="http://www.w3.org/2000/svg"
   xmlns:sodipodi="http://sodipodi.sourceforge.net/DTD/sodipodi-0.dtd"
   xmlns:inkscape="http://www.inkscape.org/namespaces/inkscape"
   version="1.1"
   viewBox="0 0 20.031683 20"
   xml:space="preserve"
   id="svg837"
   sodipodi:docname="ss.svg"
   width="20.031683"
   height="20"
   inkscape:version="0.92.4 (5da689c313, 2019-01-14)"><metadata
     id="metadata843"><rdf:RDF><cc:Work
         rdf:about=""><dc:format>image/svg+xml</dc:format><dc:type
           rdf:resource="http://purl.org/dc/dcmitype/StillImage" /><dc:title></dc:title></cc:Work></rdf:RDF></metadata><defs
     id="defs841" /><sodipodi:namedview
     pagecolor="#ffffff"
     bordercolor="#666666"
     borderopacity="1"
     objecttolerance="10"
     gridtolerance="10"
     guidetolerance="10"
     inkscape:pageopacity="0"
     inkscape:pageshadow="2"
     inkscape:window-width="1920"
     inkscape:window-height="1017"
     id="namedview839"
     showgrid="false"
     inkscape:zoom="35.416667"
     inkscape:cx="10.015842"
     inkscape:cy="10"
     inkscape:window-x="-8"
     inkscape:window-y="-8"
     inkscape:window-maximized="1"
     inkscape:current-layer="svg837" /><g
     id="info"
     transform="translate(-1.9841582,-2)" /><g
     id="icons"
     transform="translate(-1.9841582,-2)"
     style="fill:#ffffff;fill-opacity:1"><g
       id="user"
       style="fill:#ffffff;fill-opacity:1"><ellipse
         cx="12"
         cy="8"
         rx="5"
         ry="6"
         id="ellipse831"
         style="fill:#ffffff;fill-opacity:1" /><path
         d="M 21.8,19.1 C 20.9,17.3 19.2,15.8 17,14.9 16.4,14.7 15.7,14.7 15.2,15 c -1,0.6 -2,0.9 -3.2,0.9 C 10.8,15.9 9.8,15.6 8.8,15 8.3,14.8 7.6,14.7 7,15 4.8,15.9 3.1,17.4 2.2,19.2 1.5,20.5 2.6,22 4.1,22 h 15.8 c 1.5,0 2.6,-1.5 1.9,-2.9 z"
         id="path833"
         inkscape:connector-curvature="0"
         style="fill:#ffffff;fill-opacity:1" /></g></g></svg>